<svg data-name="Layer 1" xmlns="http://www.w3.org/2000/svg" width="676" height="676" viewBox="0 0 676 676" xmlns:xlink="http://www.w3.org/1999/xlink"><path d="M938,450a337.45265,337.45265,0,0,1-17.85,108.68q-1.02008,3-2.09,5.98a338.39278,338.39278,0,0,1-53.77,96.05q-10.32,12.945-21.87,24.82-11.55,11.895-24.25,22.63a336.248,336.248,0,0,1-165.78,75.8h-.01q-11.7,1.815-23.63,2.83Q614.545,787.99,600,788A336.94,336.94,0,0,1,358.09,686.05q-3.315-3.39-6.53-6.88-8.01-8.685-15.41-17.91-4.155-5.19-8.11-10.54a336.714,336.714,0,0,1-40.24-70.98,332.25383,332.25383,0,0,1-11.7-32.84c-.24-.79-.47-1.57995-.7-2.37q-.75-2.55-1.45-5.13A338.38,338.38,0,0,1,262,450c0-186.67,151.33-338,338-338S938,263.33,938,450Z" transform="translate(-262 -112)" fill="#f2f2f2"/><path d="M692.33,753.02l-6.84,24.07a337.62955,337.62955,0,0,1-33.1,6.87h-.01q-11.7,1.815-23.63,2.83L651,755l3.16-.28Z" transform="translate(-262 -112)" fill="#2f2e41"/><path d="M864.29,660.71q-10.32,12.945-21.87,24.82l-26.38.02-141.87.16-25.54.03-16.98.02-25.26.02-19.43.02-35.89.04-21.17.03-44.58.04-21.28.03-58.97.06-37.04.04-9.94.01q-3.315-3.39-6.53-6.88-8.01-8.685-15.41-17.91l20.58-.02,14.02-.01,32.46-.04,62.64-.06,21.17-.02,8.56-.01h.03l6.72-.01,3.01-.01,7.71-.01h3.26l22.86-.02,49.31-.06,21.7-.02,20.78-.02,19.48-.02,27.95-.03,149.28-.15Z" transform="translate(-262 -112)" fill="#ccc"/><ellipse cx="244.01981" cy="558.88337" rx="20.13233" ry="6.42521" fill="#3f3d56"/><ellipse cx="244.01981" cy="554.5999" rx="20.13233" ry="6.42521" fill="#3f3d56"/><path d="M502.48018,670.90564l3-.04492-.82764-56.01855a52.25792,52.25792,0,0,1,25.36915-45.5L587.281,535.11609l-1.53906-2.57519L528.48262,566.768a55.26517,55.26517,0,0,0-26.83008,48.11914Z" transform="translate(-262 -112)" fill="#3f3d56"/><rect x="578.51265" y="500.40107" width="14.56381" height="59.96865" rx="7.2819" transform="translate(909.58912 948.77079) rotate(-180)" fill="#00bfa6"/><path d="M585.54031,429.08343l78.525,92.79429L731.0156,550.537l17.84505-34.68754c-16.37136-19.47847-69.78911-42.85782-69.78911-42.85782l-72.53371-65.05906c-.1299-.47864-.26979-.95671-.44346-1.43114a17.23112,17.23112,0,1,0-20.55406,22.582Z" transform="translate(-262 -112)" fill="#a0616a"/><path d="M741.86308,505.30705l-17.3206,44.34448.0173.17253c1.72662,17.03672,28.34206,32.81193,50.36559,43.045a31.59624,31.59624,0,0,0,40.98449-13.455h0a31.66589,31.66589,0,0,0-2.02245-33.36659L796.401,521.56Z" transform="translate(-262 -112)" fill="#00bfa6"/><path d="M842.26,589.29l-9.21,33.15-5.38,38.31-1.66,11.78-.04.25-10.23,9.72.3,3.05.8,8.13,1.33,14.48a336.484,336.484,0,0,1-165.78,75.8c-.01.01-.01,0-.01,0-8.17-2.34-14.58-4.88-17.16-6.73-1.02-.72-1.48-1.36-1.46-2.01.11-4.33,12.4-19.87,14.26-22.2L652.9,732.82l9.96-3.96-2.46-14.21L673.72,700.59l.38-14.47.07-.41,4.22-24.81,8.42-49.41.86-5.06-.78-39.02-.23-11.82-.27-13.48a55.41152,55.41152,0,0,1,.76-10.35,53.31269,53.31269,0,0,1,1.84-7.6,55.24513,55.24513,0,0,1,27.4-32.29c.51-.26,1.02-.51,1.54-.76,0,0,0-.01.01,0a54.90616,54.90616,0,0,1,12.55-4.17l1.26-2.24,12.34-21.92,37.81994.97,22.56,35.31,18.83,18.69A73.31171,73.31171,0,0,1,842.26,589.29Z" transform="translate(-262 -112)" fill="#00bfa6"/><circle cx="497.69948" cy="289.84957" r="50.1036" fill="#a0616a"/><path d="M753.58721,452.62357a136.26549,136.26549,0,0,0,23.18064-1.62c7.59923-1.54533,24.59947-14.00321,29.33857-21.4998h0c3.52093-5.56988,5.77245-14.26767,7.04152-20.583a60.91435,60.91435,0,0,0-10.65372-48.35812,19.24493,19.24493,0,0,0-7.77316-6.63436c-.27845-.10888-.565-.20537-.85455-.28786a23.74467,23.74467,0,0,1-11.81175-7.30888,19.58284,19.58284,0,0,0-1.96357-2.02086,29.24834,29.24834,0,0,0-12.20275-6.12729c-7.25395-1.94141-17.752-.0143-31.20185,5.73333-6.75724,2.88773-14.14724,1.84266-19.83225.60946a1.86017,1.86017,0,0,0-1.75136.6,13.13152,13.13152,0,0,1-8.92486,3.55767c-2.032.08922-4.16392,2.90277-6.74081,6.57173-.5847.83285-1.267,1.80487-1.75914,2.39607l-.06607-1.13583-1.14926,1.26711a15.93482,15.93482,0,0,0,7.19416,25.96108,31.07643,31.07643,0,0,0,6.2501.996c1.27917.11508,2.60234.23412,3.87033.45412a24.02454,24.02454,0,0,1,17.85279,15.59016,6.28287,6.28287,0,0,0,9.483,3.05032,10.38066,10.38066,0,0,1,9.459-1.72244,6.8913,6.8913,0,0,1,3.046,3.455,8.98034,8.98034,0,0,0,3.40768,3.97566c5.14969,2.65507,5.50461,14.41709,3.6551,24.22218-1.78279,9.45122-5.307,16.28835-8.57,16.62633-2.512.25987-2.79926.43831-2.98113.88257l-.16247.39771.28219.372A10.26073,10.26073,0,0,0,753.58721,452.62357Z" transform="translate(-262 -112)" fill="#2f2e41"/><path d="M721.13324,591.12423,701.8146,552.60874C673.77367,554.52417,618.12,586.94608,618.12,586.94608L512.82128,609.27163a19.02347,19.02347,0,1,0,5.18644,32.5081L651.954,632.17847Z" transform="translate(-262 -112)" fill="#a0616a"/><path d="M713.34148,597.44838l50.45383-37.4945,8.88732-32.0271a34.98194,34.98194,0,0,0-10.52128-35.39424h0a34.89929,34.89929,0,0,0-47.624,1.53654c-18.98655,18.95124-40.64184,45.39-35.99009,63.72324l.04709.18583Z" transform="translate(-262 -112)" fill="#00bfa6"/><path d="M348.48,548.11c-.06.09-.12.18-.19.28a48.04572,48.04572,0,0,0-6-.01q-1.70994.105-3.42.33a7.17893,7.17893,0,0,0-3.08,13.02l.12.08c.09.06.16.11.25.17a70.53036,70.53036,0,0,1-48.36,17.76,332.25383,332.25383,0,0,1-11.7-32.84,43.49067,43.49067,0,0,1,19.33-10.51c14.5-3.5,30.68.45,45.19-.99C347.6,534.71,352.45,542.32,348.48,548.11Z" transform="translate(-262 -112)" fill="#fff"/><path d="M361.17,436.69c-.04.11-.07995.23-.13.35-1.14.07-2.28.19-3.42.34a7.1723,7.1723,0,0,0-3.08,13.01l.12.09a70.90452,70.90452,0,0,1-6.34,8.78,73.50659,73.50659,0,0,1-53.01,25.53c-.66.02-1.3.04-1.95.04a174.57918,174.57918,0,0,1-10.84,44.02,160.236,160.236,0,0,1-7.12,15.68q-.75-2.55-1.45-5.13c.12-.23.23-.44995.34-.68a161.94169,161.94169,0,0,0,6.99-16.77q2.47494-7.035,4.32-14.25a170.46277,170.46277,0,0,0,1.04-79.74,45.36209,45.36209,0,0,1-8.46-25.83,34.64872,34.64872,0,0,1,1.29-9.88c.77.51,1.58.99,2.38,1.44.25.14.51.28.77.42l.09.05a5.23769,5.23769,0,0,0,7.59-5.81c-.14-.61-.29-1.22-.43-1.83-.22-.94-.45-1.88-.66-2.82a1.56671,1.56671,0,0,1-.08-.29c-.25-1.07-.51-2.13-.76-3.2a15.11766,15.11766,0,0,1,6.57-2.16c8.01-.64,15.41,6.07,17.18,13.9,1.8,7.84-1.19,16.18-6.17,22.48-4.27,5.39-9.88,9.52-15.72,13.2.13.6.28,1.19.41,1.78a172.44785,172.44785,0,0,1,3.76,33.33c3.56-10.62,11.27-21.75,18.25-27.96,7.95-7.07,18.43-11.2,28.19-15.92C352.55,413.19,365.53,424.42,361.17,436.69Z" transform="translate(-262 -112)" fill="#fff"/><path d="M898.92,591.47c1.67,2.12,3.4,4.23,5.13,6.35a335.12226,335.12226,0,0,1-20.06,35.52q-.825-.58494-1.65-1.17a2.11907,2.11907,0,0,1-.25-.16c-2.05-1.46-4.11005-2.9-6.16-4.36005v-.01a70.003,70.003,0,0,1-2.81-17.7,5.288,5.288,0,0,0,1.23-9.86c-.27-.47-.46-.81-.73-1.29.01-.12.03-.25.04-.37C875.23,585.93,891.15,581.57,898.92,591.47Z" transform="translate(-262 -112)" fill="#fff"/><path d="M916.87,548.67q1.8,4.95,3.28,10.01-1.02008,3-2.09,5.98-.405-1.575-.84-3.15a161.95532,161.95532,0,0,0-5.85-17.2q-2.79-6.915-6.18-13.54a170.35634,170.35634,0,0,0-51.96-60.5,45.35008,45.35008,0,0,1-23.43-13.78,34.85779,34.85779,0,0,1-5.57-8.26c.92-.13,1.84-.31,2.74-.5.28-.06.57-.13.85-.19l.11-.02a5.24142,5.24142,0,0,0,1.85-9.38c-.51-.37-1.03-.73-1.54-1.09-.78-.57-1.57-1.11-2.36-1.67a2.48881,2.48881,0,0,1-.24-.17c-.9-.63995-1.8-1.26-2.69-1.91a15.19516,15.19516,0,0,1,3.49-5.96c5.59-5.77,15.57-5.64,22.09-.94,6.53,4.7,9.81,12.93,10.23,20.95.37,6.87-1.11,13.67-3.06,20.3.49.36005,1,.7,1.49,1.07a171.32637,171.32637,0,0,1,24.86,22.51c-4.35-10.32-5.93-23.78-4.8-33.05,1.29-10.56,6.42-20.59,10.62-30.58,5.03-12,22.19-12.16,27.03-.08.05.12.1.23.14.35q-1.215,1.215-2.34,2.52a7.175,7.175,0,0,0,6.29,11.8l.15-.02a72.0958,72.0958,0,0,1,1.06,10.79,73.50775,73.50775,0,0,1-22.88,54.2c-.48.45-.95.89-1.44,1.32a170.65756,170.65756,0,0,1,12.45,20.67A172.445,172.445,0,0,1,916.87,548.67Z" transform="translate(-262 -112)" fill="#fff"/></svg>